<mxfile host="app.diagrams.net" agent="Mozilla/5.0 (Windows NT 10.0; Win64; x64) AppleWebKit/537.36 (KHTML, like Gecko) Chrome/128.0.0.0 Safari/537.36" version="24.7.8">
  <diagram name="Página-1" id="NYbc8PuW5BziM3jh8d9C">
    <mxGraphModel dx="712" dy="771" grid="0" gridSize="10" guides="1" tooltips="1" connect="1" arrows="1" fold="1" page="1" pageScale="1" pageWidth="827" pageHeight="1169" math="0" shadow="0">
      <root>
        <mxCell id="0" />
        <mxCell id="1" parent="0" />
        <mxCell id="de1BRk6LZoEozjS6TIYn-1" value="" style="rounded=0;whiteSpace=wrap;html=1;" parent="1" vertex="1">
          <mxGeometry x="50" y="30" width="870" height="1051" as="geometry" />
        </mxCell>
        <mxCell id="de1BRk6LZoEozjS6TIYn-2" value="" style="rounded=0;whiteSpace=wrap;html=1;" parent="1" vertex="1">
          <mxGeometry x="50" y="30" width="870" height="180" as="geometry" />
        </mxCell>
        <mxCell id="de1BRk6LZoEozjS6TIYn-3" value="foto" style="ellipse;whiteSpace=wrap;html=1;aspect=fixed;rounded=0;" parent="1" vertex="1">
          <mxGeometry x="90" y="50" width="130" height="130" as="geometry" />
        </mxCell>
        <mxCell id="de1BRk6LZoEozjS6TIYn-4" value="" style="rounded=0;whiteSpace=wrap;html=1;" parent="1" vertex="1">
          <mxGeometry x="50" y="210" width="870" height="70" as="geometry" />
        </mxCell>
        <mxCell id="de1BRk6LZoEozjS6TIYn-6" value="SOBRE" style="rounded=1;whiteSpace=wrap;html=1;" parent="1" vertex="1">
          <mxGeometry x="80" y="215" width="120" height="60" as="geometry" />
        </mxCell>
        <mxCell id="de1BRk6LZoEozjS6TIYn-7" value="SERVIÇOS" style="rounded=1;whiteSpace=wrap;html=1;glass=0;" parent="1" vertex="1">
          <mxGeometry x="437" y="215" width="120" height="60" as="geometry" />
        </mxCell>
        <mxCell id="de1BRk6LZoEozjS6TIYn-8" value="PORTIFÓLIO" style="rounded=1;whiteSpace=wrap;html=1;gradientColor=none;" parent="1" vertex="1">
          <mxGeometry x="250" y="215" width="120" height="60" as="geometry" />
        </mxCell>
        <mxCell id="de1BRk6LZoEozjS6TIYn-9" value="CONTATOS" style="rounded=1;whiteSpace=wrap;html=1;" parent="1" vertex="1">
          <mxGeometry x="773" y="215" width="120" height="60" as="geometry" />
        </mxCell>
        <mxCell id="de1BRk6LZoEozjS6TIYn-12" value="" style="shape=image;verticalLabelPosition=bottom;labelBackgroundColor=default;verticalAlign=top;aspect=fixed;imageAspect=0;image=data:image/png,iVBORw0KGgoAAAANSUhEUgAAAG4AAABuCAYAAADGWyb7AAAAAXNSR0IArs4c6QAAAARnQU1BAACxjwv8YQUAAAAJcEhZcwAADsMAAA7DAcdvqGQAABv0SURBVHhe7d1XryxH1cbxscnR5ByMySaIaEBEy/KFkcASF4hPBbdIfARuEFyAEBIXGATIIpicc84549e/lv9bdYaZPZvd0z3nlXikOt1dXVUrPKtWVffMPnPNX/7yl7s3/8N/4O67757KiGuuuWYqVwOuvff4PwyINOXf//73VMa6qwH/I24HRpJ2lasBJ0mVIvjaa6+MGQ4pDf31r3+djtrc9773vaLt2A5c//Of/5zO73e/+03HEbscPcpxnwzF+b/+9a//GEcd0EPfv//971Ob7bSpXeMtjZOtcQy8R/Z0fv/73//M2JFU53/7298mh3DSfe5zn6nkOP1G/OMf/5juRYICBYC+UJsxIEb8+c9/PpMVWSNJERnc2zfWUjgZca0bORPUceqf/vSniZQHP/jBV9w3sxRO+uMf/7j55S9/ufnNb36z+e1vf7v53e9+NxVO18ZYCmiPaAVhT3nKUzaPetSjNo973OM211133dnsIdP5KBNJxkvXyISCY5vYNbAIcUX6PpgZ27NldLLznMNxSPrZz362+fGPfzwR9Ytf/GKarb///e+ndMdpD3rQg6bC8YiPuHQxXuUBD3jAdI8eSKHL4x//+M0NN9ywedKTnrR52MMeNtVpF6mR1FgRlp6gjr5ljyVxEuKKztG5HDBGuln0wx/+cPPTn/50Ikv59a9/PZH16Ec/+owEfZthYGwOH6FNchQzFckPechDJoI4WwAoyHz605++eeQjHzmR+MQnPnGSp22ECBpytmcgGD/7lsQixOXEfWAoB4GIBgb/6le/msj59re/PRFnZpltHDFGvnT6wAc+cCocx/FKkC4jNqcWJIrZZe1EVGvo2F5/JBnf7HvsYx87EahIrepG0Mm49KssjZMQx/E5Sds//OEPUxr8wQ9+MJEnLeZkTtAOQTmFU90z00p3Rbq27tfWddAGpNLG1LY2EWB2IVQ7ugoaayLCH/GIR2ye97znbR760IdOBBoDmvVkFoxL4iTEMZLDRPz3vve9zZe+9KXN97///elaPUhhEYQcsyJHc3CzLKLcq16d87FE5FjA+PrURl9kGa9ZXhtH7Z72tKdNafSZz3zmRGY6swu6XhJHJY5RwNjRYTmZIzgGEV/96lc3X/jCF6Y1jKM4RdvIOSXSBXYd2WCtNQtf9apXbW688cZpXWUj3fVvJuaDwNbtjdllsMiMsy1/+MMfPilc9CrSjzT42c9+dlq/bDgYyRDOcA4FwKkwBuCIrq2/119//USUTGHzcuutt04EAjuMwSZ9SukC91hBeSniRsduGwdFGWUZIRqR9sUvfnFz5513TtHqnnZ2d0VgKZHBp0Q2jXZC19Y2a7GgpD+94QUveMHm1a9+9eYxj3nMGUHsN9445i6f/be4FHEpM2L7moIZZKeINGuZGWd31uyqX+lU/alTpcCJpF1HM6cAo6sZdY8fz+7dcsstm2c961lT1qlPdlrH7VbnYvaM2wX3EYC4n/zkJ1NqRBpjba1Fas7RrkConBqHiGOXxwJ6S5syhnTpMcJmy5uZl73sZVOx+9SuDdmxssml17gMgW3jON8W/1vf+tbmrrvu2vzoRz+a6kuL1kBH6159Muj/Q6r0Ks76TFePB9lLb4RaCpBk1/nKV75y2oFGXsvCXMzenDCGUo4Z5vnna1/72uYzn/nMNOMQxiCGMliqYABD1emHROfH2nXNQXZsz/6uEWDdpr9zxT2FL6yBNl/w/Oc/f/Pyl7988+QnP3kik43HWAqORtxI3sc//vHNN77xjWk9QxLiekOBFG0R5dg62Gsq1+6dEvSKpF3HiO04ZgvFtVnJZjNR6nzd6143rXtQ+zm4NHGMo4Cj11IWYjPtE5/4xLQRgX3Gi9A5yGH7kJx90H9bp5GMQ/0PwRh8IwDZakPi3adnPuue4JRZvKEB12Saifn1EC5FHGUIoRAhZpEUeMcdd2x+/vOfTwt2oNDoCOeUm4O5jk1+43Q8FBAXhfGN2QsHM89RuvT8d9NNN03tCmC+JBuZ2y/I9+FSc7aIoBzSCPUWxM5Rbqe4ot5R+qjO+akRQdtH9lwk2g+hNSxbXSPFjvPTn/705rvf/e5ZPVKBbG0uioMzLqNGEGLrK4+bdR/96EenV1iIocihzcVc5+zSaQT9zsN2f+3HMje42I8E47Rem138w3Z+e9vb3jbtNqVJddrx3VFnHEMrhFOCAEI/97nPTW9DPGSrE0UUGcu2Y5bGqO+uMuow1h8LCGs8/nKOGP6xWTPz7AUsK9Jp7dxvBh7CuTMu4aNhjhQjxCz7yEc+Ms0+ComyyKptGM/n4hD5h2TRT5ucCsYsyNTPgcA2FrKMR0Zyks1nL37xizdvfOMbp40dme6Ns/Q8HJxxo9DODexT5C9/+cvTpsR2H5GUHIXucnBjLQkOOK/Q0TH9sovz5pIGxk1WaHzBLVXCN7/5zWlvgESw7Ozy2S5ceLHJODD4Jz/5yWmRRRgSpUoEjobXZ7vMRQ7eVxBzXqF/JRxLN+CTdopmn1lEVsHCXx4PLDWCX8rUFqnqLoK9qdIzmcggqN2ORbd1zbOajzSkSO/j1GvXjmoO5H0Gt6Dn5EoveRlbZDtPB+Q4iuBR997YCDAwdnKA7q3RxnM/OeTmeFA3Hqt3rG4fjMO/nuO0d3zzm988bVY8E9MT8iUb2vCxkf17iasBMMwgjBAddpGOCW8XZWGlyFzyyvPGMV4OdIRxQafnPTZMBntH6JzjtI944CzjGZe+zgWcyPe+0ZiIlrbcG8lqlqaH6znEFVhk5mcfB73iFa+YZERSILOgSf7BzYmBMqCPZ6RJ9xiYEylgUG0NPAccbtzGMa5CZo4kj5MjzItr54Inx+9C+hlHSrMx8Em2d6kc1n12j/Ic6aDeeeN31K/jPtlBf+2MJVi093UIL6Sf+9zn3tvqSuRbfWEncQZKgSLCuXyMNAQyMgcqo4EUmoMc14wh27gIcUQOoqwVjqJXG0V7/UdHgnsdOcFY7tFdH5nDR04+nvFFWXVKZOU0JVmNB6O86vbBff4juzTNx76EZJdpiSKXXU0OOujHNti5OdEJKJETRLWPZ6RIdYqBCHZkUHVzkfGKc0bK+zk70ugiiBBJvhmknXPtIAJAnXtFL4cYm5zs+/rXvz6N3U4vmezk6HwzF8Yk1/h0Js/znZ0m8CW9kQcFTNhJXEaDASjMKF/s0ZkRnKXe/XZRo6A5MDY5nCr6jA/SirftvjbgSD6Dci7ZHKAvXTh5LOoalw3aqrPW9Wk1An2y4cu4zrVHcPbRbS4irXM2GFvAeDxgG2R30CbsJM5AYHDFQN/5znemj2k4smhQtG2mcU5956BxOIuDzSrfuRSRjp4dkcShdojkRw49cob+Y1HnHuIA8YjQD7QxpsAwmznSugmcWL+5oGMkOJJvfLrxMV+rS+dwkDjQiFEcJPLMtj65FqGODcq5zbTtKLkMcjQDyRb9Pk333OiLs2Ye/bQpaBROt1bRx311dFRylnt2w5zEDu3Vm33q2WFMpLKXfH3Use0Y9pFXsDhXTAj6qGdnARPoP+IK4nJAEUtZ55///Oenj2rkYtelGOcNWHQwci6MbSyfntvFikIOzYER4ToH0EW/0ido476Snu4hWHv9tXeP/hFjhyk4zDyzTilYSuPBOEoY7+0DG0A/5/qwj56ufXtAlqGfjILE2oYz4rYFeh5ioCjkQAqLCqQtDQpLhxxHLoU5lD6RsiTIRCRnmXH0QBzZI0lLwjpLFrk9kAuyMHlhV5ToANYUxDWdGbUGRJzP9iJO4Th6LA0OEiTIs773xyegbg14gU+mIE5m2QWuHUlzrpSqwLNbU7Y0szTIMdOb3XQq5dFlaXBUwVLUI1A6O9YG5Tyw19LUu+DqRtk7UyXn2B7bFPiTJ99aMl1FwBrEiXgzjdPIQ5g61wXUkkAcH/AJx5GJuNaapUGuTZNZl7/pQ5d4uiJVOipFmodBkd9uZy3FyRHl9Ig4oLi6pcEHAoWzmnl0aAOxNPhYhrODtrOFOGqpOEuVHUGEUdxsM/NKXQwY2y0Fs42DyGOEczq4XiNVsp08hWw6mAGcucYam//ZapOSPtDE2Zl3kCPHWpS9OTeAXabNyRozruBIFmd1vsbmCFnWE7Od7WRbLpQ17CdDapZhrHPN/HHvcUZcEaaBo1cv1jXPMDr4A74eTpcGxclMYXogTPrkvKXRzM5e/uhr5OrWQH62u2Y3n4xBu3PGgXUmxSmsNNjSKKrJNPtcc57jGqkayBr1QKRjdUvDBoksaRIXMPp/J3GUxDTipIyIM9gai3MKkpWz1DmuRRyMxHGg41rB227SLMMFX1QHO4kzNbFcrucsSov6NYgjB8jdnnFroQApWNjtmG5LgpweuhFnr0H+aP9OLewgW19GRQ2YQUuCzJGoteSOSGa6VLd28CCsT0NG7CTOhoSC26lxjdkGOav0aLaT7bgWyOI4OkhRrTlrEFfQNMtkP6l6xE7ifBalA+e1k3FuoDVyPNnkcBa5EbdWxJNBpkI+4hTnayDSyCcXBz3XhZ2a9Nc2BtDJEQy0BnHASQonjoasBbIKFAHEbvrki6WRveQ6R1rBC9dSLOcoGrcxAW8MdNbRA+H2lL0MyJCzcwxZZLSD7YW2l8zaefBXR4ftXL8E6EOeo42alxA9SzXznEN+U46FUjOQRbblq3Q91U//rgwkUc4RURUK+uzL9leAuM8h41Zcv6XBWQpHkSsD+WiL89YInIvgJMQVuSNxYIb5ioRPvJGlDeKanWMkrgH60dXrJy98BdTVgpMQV65WSskiHFnehkvVzbDaIUxxvjTITq9kCqqC6WrASYizVnFCuyQEFd2cNpKjzj0Oc67f0iAfcXQRUPt0OyVOQhxnFNWcIqo5Rr0NijrgpBwH+ihLgy5KBKYHrBE4F8FJiOvbYgrSEBMpiIMxhQKHqdN+aaQX2W3D6WhXnX6nxkmI44AcMzoIcc4jsUh3XJM48hA1BpRU7bFEuRqwkzh/vWIH5SsLRRyHlbLmoi8BcYgdoyNwjv95rrc1OQ5Kod1bEvSwQaIbmaVH9XSnE3KhzKEcC+T2wXVfg8//yd1JHCeJ9JBSdZqLM+H3yBjlhOpKWY4F0BqgHyfRA0nkOkec+qVBVnKc44NsiIudxPW2JAePxHU+B42zPVYKlw45TZscqF8GLA0ylUj0JqW1eWlkM5Bt5lleRuwkztcDOCjiMqDruWgsRTSbTc5FlvTsC0rIG2cZAyprIP34wVfS/eXqsV75XRSCle9NJEEzYidx/WmtjiACGNEMmIucYjyOQBBwjKDxH5HSgdLyvfvkKmuky1GOQPKHjtZ9wWTtWQv5BXF8k99gJ3EifnvGgetjETeiAOEYsw5xnIVEbdvAKN5nLo2IM7vNNH+pikDImUuDDuzl+1Kl63OJ05DSNTKI822HXxbGMSailFJxiiGPw4rynFUArYH0MPP7bin96LM0yMoneIg4PlOmNtO/WzDb6gg1dt35HDTONnGtd9Inp1G4ma+9c2UNJC8d6EYPDlwaZPNJx5E0Bc4+j6uhwnn++wbPMlKTe9LVsZxmHNFrTM4QVZGnkNuCTBf36aW9dnNRClKcb1+TSR7SBBYfII7e9FsaZNEDyPQ/MgCdqt/pBQZIEbbAObkPMtdQvPToSG7EOapfA2a8UkaAnLYG+NnLBsvFrgmzlzj/bYROQGGd1ySudNnukg6OaxBHlvQkaOhS4Khfw37ygA/MNrqYhVAQ7c070pTdnTRB6WbAGoonD3F2c67H12BLg5PY33pGPiCu8yXBz0C+/1FWAG37fS9xGvqvaGPaOzqOXEPxwIDWGdFHFzosDTaOmxIQ6Xyyhv3ksFfG8+4WBM2Ic4l7whOeMD3DlCKbpkuDc5KFqJ4rGbPGjEMamWRnO50c14BgkWFKk+wG5EXgXiY4ygOw/6aoN9VrrC+AtDYiZpu/FOLIZt3S8IrL2sppZ466d8atQZ4gYbsfnHDOZnykA+wljsMo7ndDsW97znFrKE5BhfIItFFCHCcWfUvCuqrwAXs5rxm3hv1sJs8eI7gGfpmO07/3IgU9L4FG8uxLX/rS6ZtXnEdxBrlXe4LUJXAujOFLQz23ufb3aRbqY8z6bMhO2cSzo8zilzn8wIMAEbDtpltfj2FffiK/zRfZZjk5vkn+jne8Y7qnTZsk+iR/54xjVDDTrHVIa4NSrlWKwrFuLihfMABl7fLowJi5oG/ZQ0GM8W0EOG9plDXYZ9dOB/L5FznPeMYzpnQNBW7nYSdxGhgAECXSRbyBDZLByjaBylxwJKNEe2MLIE49xl+kCgrBkSPYKqp7sb008hP7zDR6kO/Tbna/8IUvnIL0POwkDkYCGGStY3CEhqLhmMgoRnAw8lx7nhFIc2GsjmSUMo8x9kVAblkFEMdmvm1JKLMF7ZWwlzgGAaMI8NvYdnemObLOK8dA4zSjgXHH2JwYRyGDbRzHKa1lS4Nv2UFes182ky6f/exnT5+M0E19WcF1BMNO4nSIuBxlMP/t7K5UciyyAgWRRY8c7Fpa8UeXc8Em43EciG51xj62LbvALvJNCraSre6pT33qNEHMSPUFFTiOGWEncUW4Y1NWR890Fs4iVnFPGevmImMyTBCRYSFXjgFOQRx9rS9kWWNy1JIgl0yy6eFoTfMbqyYINMOA7SH/nqulDtjX2LnnKVtl5xX3ul+ZC0ozTnGeca7LAHPAJgGZ3hyEuGPM5ouAzPEFNvkeu+wjpMsRdLT25VfXsJM4hgGnMSgncpqo8DtojCTY+0yRKkcj1pQfUxylHEdEsDYpEupDB+OLTE42vr+FNvZckMEWY5MhBXMkmV/5ylfOiG2m0zE79HNMz+qV7HGOEEft+c618dx35DNw327Z78p5BOBv0Lcj3cgB48C5My7FxmIgKdMiKhI4E2EG9L8DFDEZkeH6KcbgsJzm2n2EMKLo4jwPxsZV11/xZNgcpBOkE5BPBqgnm57uc74+7KNbdXRTnOsT2Z3rr71rbehPjmdGR+UlL3nJ2a85an8RnEtcRm0XQv3up4dhf8+mToT6OzKgcJHBWCVnOZqtZhAjXOcgz2q9LYhIkelv07xNUL+dSi6DdFKA/mw1Phv8r4HsarNCP7q4D9ZZJLCTPqU942WT+0oZyHmE6tPHZd5HymL6a6fNRXAucYGAkLFmnV9j4nAkIK4X0SKMsfXLSRnAUP0oC+oYwlF9bUF/5/4S1H926q9B9SfjWOAkY0YOIMj//+w/oBMsdKOnop2SPftKY0VghBiDbWxnl8er17/+9ZNN7gsgs/ci2EtcSoyojiLgHabcTJFmA6UpUQEKqS+yM8ZYrtUzCvnGctQXcf6M17EoT/YcpEe2kEW/As6aZ+ZZBsx4csf7sgJb9efodDNma6OivSBVRyZowyakCfx+nELQOup3Eez8pY8cvg+EZ6x1zY/YWdTVZZBzR20oQ3FOUtQFbULnopHzOI1BgsI9cpWccFnoT7/sdF0JZp4gsj23VUcCAkqLo13ALn0KLPf1cR+p7Ml27d761rdOWYsOxmQfO8m8CPb+RAtw0j4QkrF+D+BTn/rUdGRMxEIGgj6UFrGMKD1Wilyp133FWMYgh17pNhfZ1pjGr85xlBMJnOrIHs5uTUYo0L2ZBxHMZjPTucBGWD/FwlZj6ROxF8G5P4p0CBQikIL+G1q//y3FuKZEDlGKOuT4PxgRGzmK+45FoKNi/IrrYxBHTrMhmcH4rjnY/XaNkFPLKmAcb5PsrJWCUpA6gvGMpZ0Z/Pa3v33yU58A8AufGUsAC4hDuBRxlCrKkEcg5fxvpnfddde0I7M+UNT6FGEW/YiGnMTAHKgg7pSgY8R0VNeR/uxyRJRzGxkO92ZJai3NItl9xNkPvPa1r73CvsaFUcYhXIq4IohRorHFF6E+cH3f+943tXHPzyfbFYouCjGudKKP4nxU2jhXC7aJA/pzvmATlMhhn+Bkv3qfXnvL5OHa93Y89954441TfTMRRrvDeL4Ps1IlcjiZIOQl0H8y88EPfnD6yTKkURRBDPZqR5rQtgLbEX41g93SJl0LYrMvfwRB6hP1N73pTdPbJmTLUNpDtncM29e7MGt7RoBoozSFFcrL9W94wxumB0tkydse2kWeh2lGN9MyHrnaMuzUOC943BOkZpqNBdBfOnRkJ59YPnxzwIsKb0ZKj+xkd+SMJI31h3DpGVfkjLsgRhFMOfW29R/4wAc2H/7wh6d1z5rHKAZqF3nbCp+avIgb9VJXPb3paClw3zpnhyhwPcIg8aabbpq2/K95zWum9Q7J2iKQ/TDaPJ5fBJcmjnAFQbuEIo9xiPrYxz62ec973jP9GK6FeztVwOiY/9aIY2M7sIBu6h1lGLaZeexz7qHafelRWrz55psn0qDHnLJTdobL2DtrjQMKUSThlBd57bZaxD0u3HHHHdMMbEcKOaTiurRyKtAXabuIU6TBiFCQZjmw+bBrvO222862+mYlYhFqLClWn3AZ0uBSxImgUThjmkUMVFxrx0izkqHe8N95552bd77znWeOcU8ZnaTtKTESp0CkKeyTGpFgCRCkt9xyy+b222/fvOhFL5rat9634x6hP1yWNJg94/aB8REgPVDStehzfNe73rV5//vfP0WmLbKo5Qi7TlEamVAwgHGMXYrOkc6V8bz2nTeGvs71pYsjWb0ZMX736au4HnXyqs99G4+3vOUt08titiBsm6ht8MdcLEZcTuG0nOxaYRwjPSq8+93vnlKo5x11CNQ2AsCx87BN6nif42G7X20LDCQp2ugjQ9DNufFlFSnOrNGnl852xz4/88efim9lgX7uH/pqHdlzsRhxHMQQTklR1wpH9DZBlPtFyPe+973Ti2rXnvMiQ3QWoRHfGqlNiBR9Ohq/a0UwOdqym91tGuhXVnAfYc7NNOm913gIkxGsYb5m8JznPOfsY6bGaYzzoM1cLEYcZECK5jwO4RznHGONEPlel33oQx+aftLZYs9h2iLA/WbZmM5GZynatE2vdC/ibM2NIUgUY7hntikFh3pybJbMMBsPH8V4TlWXPgXUGGRLY1HidoHjAmcpHMBJwY8NelC3E/V+0wYAic0QM4aD9Y1QDm6sHLoPZI1OR7T+6jlesEh3vi7nzYfdohlGbkGovWKctcgasTpxIE2K6FIexxWxZkCwpvgagY+LfKJgTfSfw/nBJsRxtId66YoDXSOyzQQiQ4Qq5HN66RIZZpHvNNooedvRpkmREcC42pNp7IKHXLZE6ho4CXHAYLNIyhnXLMYjRypt/QDO9vUFi7/0alendI5c9wUBRzcjGlNQIJWTvYqyGfLps4I065cZZab1dj8UWHTSn97OjRfY08yN6CWxCHE5a8RYZ+fIcYGxHALWNkQ2O/Sr6K9wIsJEP0IKAo5z30wwphninnFa08gREGQImghQr10y9Iv48V5Q7z6oT39w7zyM41wWJ5lxnHIecsg+jE7ahUPjH1qTBMZ5OMWato2rkri5OBTxh4ifGzhr4KokTlo6D4f6H0pFh+6vkermYbP5P1IHj67I6gYOAAAAAElFTkSuQmCC;rounded=0;" parent="1" vertex="1">
          <mxGeometry x="100" y="60" width="110" height="110" as="geometry" />
        </mxCell>
        <mxCell id="de1BRk6LZoEozjS6TIYn-15" value="descrição da imagem, contexto" style="rounded=0;whiteSpace=wrap;html=1;strokeColor=default;align=center;verticalAlign=top;fontFamily=Helvetica;fontSize=12;fontColor=default;labelBackgroundColor=default;fillColor=default;" parent="1" vertex="1">
          <mxGeometry x="59" y="288" width="851" height="215" as="geometry" />
        </mxCell>
        <mxCell id="de1BRk6LZoEozjS6TIYn-16" value="Rodapé" style="rounded=0;whiteSpace=wrap;html=1;strokeColor=default;align=center;verticalAlign=top;fontFamily=Helvetica;fontSize=12;fontColor=default;labelBackgroundColor=default;fillColor=default;" parent="1" vertex="1">
          <mxGeometry x="50" y="1080" width="870" height="62" as="geometry" />
        </mxCell>
        <mxCell id="de1BRk6LZoEozjS6TIYn-20" value="Guilherme Campo Soares" style="text;strokeColor=none;align=center;fillColor=none;html=1;verticalAlign=middle;whiteSpace=wrap;rounded=0;fontFamily=Helvetica;fontSize=12;fontColor=default;labelBackgroundColor=default;" parent="1" vertex="1">
          <mxGeometry x="379" y="110" width="167" height="30" as="geometry" />
        </mxCell>
        <mxCell id="de1BRk6LZoEozjS6TIYn-22" value="titulo" style="text;strokeColor=none;align=center;fillColor=none;html=1;verticalAlign=middle;whiteSpace=wrap;rounded=0;fontFamily=Helvetica;fontSize=12;fontColor=default;labelBackgroundColor=default;" parent="1" vertex="1">
          <mxGeometry x="1015" y="331" width="60" height="30" as="geometry" />
        </mxCell>
        <mxCell id="KyWGnfFQ2H4ae2srYeDa-5" value="CONTATOS" style="rounded=1;whiteSpace=wrap;html=1;" vertex="1" parent="1">
          <mxGeometry x="623" y="215" width="120" height="60" as="geometry" />
        </mxCell>
        <mxCell id="KyWGnfFQ2H4ae2srYeDa-10" value="" style="whiteSpace=wrap;html=1;aspect=fixed;" vertex="1" parent="1">
          <mxGeometry x="59" y="761" width="122" height="122" as="geometry" />
        </mxCell>
        <mxCell id="KyWGnfFQ2H4ae2srYeDa-11" value="" style="whiteSpace=wrap;html=1;aspect=fixed;" vertex="1" parent="1">
          <mxGeometry x="59" y="575" width="123" height="123" as="geometry" />
        </mxCell>
        <mxCell id="KyWGnfFQ2H4ae2srYeDa-13" value="" style="whiteSpace=wrap;html=1;aspect=fixed;" vertex="1" parent="1">
          <mxGeometry x="59" y="950" width="121" height="121" as="geometry" />
        </mxCell>
      </root>
    </mxGraphModel>
  </diagram>
</mxfile>
